<svg xmlns="http://www.w3.org/2000/svg" width="896.946" height="333.095" viewBox="0 0 896.946 333.095">
  <g id="Group_1490" data-name="Group 1490" transform="translate(-139.004 -191.777)">
    <g id="Group_1487" data-name="Group 1487">
      <g id="Group_1480" data-name="Group 1480">
        <g id="Group_1479" data-name="Group 1479">
          <path id="Path_3557" data-name="Path 3557" d="M308.373,524.872h-36V463.608l-26.362-65.027,33.362-13.525,19.756,48.733L332.743,413.5l18.6,30.821-42.973,25.938Z" fill="#323253"/>
        </g>
      </g>
      <g id="Group_1482" data-name="Group 1482">
        <g id="Group_1481" data-name="Group 1481">
          <g id="LogoLab_0_Layer0_0_MEMBER_1_FILL" data-name="LogoLab 0 Layer0 0 MEMBER 1 FILL">
            <path id="Path_3558" data-name="Path 3558" d="M228.367,211.523q-5.721-3.136-11.257-5.9-3.506,5.352-6.643,10.7-29.895,51.856-14.394,109.617t67.172,87.656a120.731,120.731,0,0,0,11.073,5.9q3.506-5.166,6.828-10.7,29.895-51.67,14.394-109.432T228.367,211.523Z" fill="#1acb83"/>
          </g>
        </g>
      </g>
      <g id="Group_1484" data-name="Group 1484">
        <g id="Group_1483" data-name="Group 1483">
          <g id="LogoLab_0_Layer0_0_MEMBER_2_FILL" data-name="LogoLab 0 Layer0 0 MEMBER 2 FILL">
            <path id="Path_3559" data-name="Path 3559" d="M238.7,319.663q-36.539-36.539-88.394-36.723-5.537.184-10.888.554a77.836,77.836,0,0,0-.369,10.7q-.185,52.04,36.539,88.579Q212.127,419.13,263.8,419.5q5.536-.184,11.072-.738.369-5.352.369-10.7Q275.056,356.2,238.7,319.663Z" fill="#ff8c5d"/>
          </g>
        </g>
      </g>
      <g id="Group_1486" data-name="Group 1486">
        <g id="Group_1485" data-name="Group 1485">
          <g id="LogoLab_0_Layer0_0_MEMBER_3_FILL" data-name="LogoLab 0 Layer0 0 MEMBER 3 FILL">
            <path id="Path_3560" data-name="Path 3560" d="M392.608,335.718q35.432-61.266,16.977-129.547-1.845-7.382-4.244-14.394-7.381,1.478-14.763,3.322-68.1,18.454-103.527,79.721T269.889,404.183a122.833,122.833,0,0,0,4.429,14.394q7.2-1.291,14.578-3.322Q357.176,396.985,392.608,335.718Z" fill="#00b6de"/>
          </g>
        </g>
      </g>
    </g>
    <g id="Group_1489" data-name="Group 1489">
      <g id="Group_1488" data-name="Group 1488">
        <g id="Layer1_0_MEMBER_1_FILL" data-name="Layer1 0 MEMBER 1 FILL">
          <path id="Path_3561" data-name="Path 3561" d="M500.7,386.8H476.85V523.65H500.7V386.8m48-40.05-4.5,36.55H524.6v19.6h19.6v78.2q0,22.75,10.4,32.6t32.45,9.85l12.05-.95,10.4-1.9V500.85l-10.8,1.5-12.75.7q-8.9,0-13.4-4.7-4.549-4.5-4.55-15.2V402.9h36.45V383.3H568V346.75H548.7M438.95,380.6l-12.75-.7q-26.3,0-38.6,13.15-12.2,13.3-12.2,37.95v41.5a69.268,69.268,0,0,0,3.15,21.9,40.864,40.864,0,0,0,9.05,16.05q12.3,13.1,38.6,13.1l12.75-.8,14.8-2.05-.55-21.1-13.15,2.2-13.85.7q-12.6,0-19.7-7a23.159,23.159,0,0,1-5.5-8.9,39.065,39.065,0,0,1-1.8-12.45v-45.2q0-13.451,6.85-20.7Q412.8,401,426.2,401l13.85.7,13.15,2.05.55-21.1-14.8-2.05M477,331.9q-3.85,3.3-3.85,9.75v8.05q0,12.6,15.5,12.6,15.75,0,15.75-12.6v-8.05q0-6.45-4-9.75-3.949-3.15-11.75-3.15-7.7,0-11.65,3.15m367.5,49.85-19.85,2.9v20.4l28.45-3.7,9.35-.4q11.5,0,16.95,4.95,5.5,5.051,5.5,17.65v14.9L870.25,436,856,434.75a46.791,46.791,0,0,0-17.65,3.15,39.953,39.953,0,0,0-13.3,8.25,35.683,35.683,0,0,0-8.5,12.45,43.439,43.439,0,0,0-2.85,15.75v7.8a57.845,57.845,0,0,0,2.45,17.55A35.333,35.333,0,0,0,823.4,513a32.641,32.641,0,0,0,11.35,8.2,35.641,35.641,0,0,0,14.55,2.85,33.589,33.589,0,0,0,19.3-6.4q9.2-6.3,17.4-18.9l.1,25.25h23l-.35-98.4q0-23.85-11.1-34.5-11.1-10.7-35.2-10.7l-17.95,1.35m-6.7,98.75v-3q0-10.95,6.15-17.25t17.95-6.3l10.95.4,12.05,1.5V477.5q-6.7,12.35-14.95,18.75-8.051,6.45-15.3,6.45a14.783,14.783,0,0,1-12.05-5.75q-4.8-5.75-4.8-16.45M780.9,332.05H757.1v191.6h23.8V332.05m-104,47.85q-12.9,0-22.35,3.4a36.808,36.808,0,0,0-15.35,10.15q-11.75,13.7-11.75,37.55v41.5q0,23.8,11.75,37.4a35.767,35.767,0,0,0,15.35,10.25q9.45,3.4,22.35,3.4a65.9,65.9,0,0,0,22.3-3.4,35.869,35.869,0,0,0,15.2-10.25q11.8-13.6,11.8-37.4V431q0-23.85-11.8-37.55-11.75-13.55-37.5-13.55m23.8,36.3a42.356,42.356,0,0,1,1.65,12.45V474.4A43.571,43.571,0,0,1,700.7,487a23.214,23.214,0,0,1-5.05,9.2q-6.7,7.4-18.75,7.4t-18.8-7.4a23.214,23.214,0,0,1-5.05-9.2,40.178,40.178,0,0,1-1.8-12.6V428.95q0-14.25,6.85-21.65,6.75-7.549,18.8-7.55t18.75,7.4a21.94,21.94,0,0,1,5.05,9.05m298.85-36.3a38.1,38.1,0,0,0-20,5.6,55.275,55.275,0,0,0-16.75,16.05v-73H939V472.5q0,25.451,11.2,38.2a32.762,32.762,0,0,0,14.7,9.6q9.15,3.25,21.75,3.25,25.75,0,37.55-13.1,11.75-13.05,11.75-38.5v-44.4a83.7,83.7,0,0,0-2.3-20.8,43.625,43.625,0,0,0-7.15-14.95q-9.6-11.9-26.95-11.9M962.8,475.25V424.3a54.321,54.321,0,0,1,14.55-16.85q8.5-6.2,16.55-6.2a15.927,15.927,0,0,1,13.15,6.45q5.1,6.45,5.1,23.3v43.7q0,14.5-6.3,21.6-6.45,7.3-19.2,7.3-10.95,0-17.4-7.15Q962.8,489.351,962.8,475.25Z" fill="#323253"/>
        </g>
      </g>
    </g>
  </g>
</svg>
